<svg width="40.000000" height="40.000000" viewBox="0 0 40 40" fill="none" xmlns="http://www.w3.org/2000/svg" xmlns:xlink="http://www.w3.org/1999/xlink">
	<desc>
			Created with Pixso.
	</desc>
	<defs/>
	<rect id="back" rx="20.000000" width="40.000000" height="40.000000" fill="#FF3E79" fill-opacity="1.000000"/>
	<path id="icon" d="M21.5364 20L27.7429 26.2063C28.1334 26.5969 28.1334 27.23 27.7429 27.6206L27.6208 27.7427C27.2302 28.1333 26.597 28.1333 26.2065 27.7427L20 21.5361L13.7935 27.7427C13.403 28.1333 12.7698 28.1333 12.3793 27.7427L12.2571 27.6206C11.8666 27.23 11.8666 26.5969 12.2571 26.2063L18.4637 20L12.2571 13.7935C11.8666 13.4028 11.8666 12.7698 12.2571 12.3792L12.3793 12.2571C12.7698 11.8665 13.403 11.8665 13.7935 12.2571L20 18.4636L26.2065 12.2571C26.597 11.8665 27.2302 11.8665 27.6208 12.2571L27.7429 12.3792C28.1334 12.7698 28.1334 13.4028 27.7429 13.7935L21.5364 20Z" clip-rule="evenodd" fill="#FFFFFF" fill-opacity="1.000000" fill-rule="evenodd"/>
</svg>
